# xmcd
#
# Track frame offsets:
#	150
#	26300
#	43732
#	61532
#	78940
#	95857
#	113277
#	129920
#	152207
#	171287
#	192410
#	210257
#	224795
#	253375
#	276125
#	298907
#	321762
#	330395
#
# Disc length: 4597 seconds
#
# Revision: 1
# Processed by: cddbd v1.5.1PL0 Copyright (c) Steve Scherf et al.
# Submitted via: CDex 1.50Beta5
#
DISCID=0511f312
DTITLE=小田和正 - オフコーススペシャル/小田和正作品集
DYEAR=1900
DGENRE=Pop
TTITLE0=愛の中へ
TTITLE1=僕等の時代
TTITLE2=思い出を盗んで
TTITLE3=秋の気配
TTITLE4=夏の終り
TTITLE5=YES-YES-YES
TTITLE6=愛を止めないで
TTITLE7=生まれ来る子供たちのために
TTITLE8=愛の唄
TTITLE9=思いのままに
TTITLE10=めぐる季節
TTITLE11=ワインの匂い
TTITLE12=言葉にできない
TTITLE13=Yes-No
TTITLE14=さよなら
TTITLE15=I LOVE YOU
TTITLE16=きっと同じ
TTITLE17=歌を捧げて
EXTD=
EXTT0=
EXTT1=
EXTT2=
EXTT3=
EXTT4=
EXTT5=
EXTT6=
EXTT7=
EXTT8=
EXTT9=
EXTT10=
EXTT11=
EXTT12=
EXTT13=
EXTT14=
EXTT15=
EXTT16=
EXTT17=
PLAYORDER=
